HIERARCHY
ROOT Hips
{
    OFFSET   0.000000   0.000000   0.000000
    CHANNELS 6 Xposition Yposition Zposition Zrotation Xrotation Yrotation
    JOINT Chest
    {
        OFFSET   0.000000   8.007230   0.000000
        CHANNELS 3 Zrotation Xrotation Yrotation
        JOINT Chest2
        {
            OFFSET   0.000000  22.077100   0.000000
            CHANNELS 3 Zrotation Xrotation Yrotation
            JOINT Neck
            {
                OFFSET   0.000000  23.254800  -0.000021
                CHANNELS 3 Zrotation Xrotation Yrotation
                JOINT Head
                {
                    OFFSET   0.000000  14.370000   1.956610
                    CHANNELS 3 Zrotation Xrotation Yrotation
                    End Site
                    {
                        OFFSET   0.000000  19.566000   0.000000
                    }
                }
            }
            JOINT LeftCollar
            {
                OFFSET   3.911900  19.017000  -0.467063
                CHANNELS 3 Zrotation Xrotation Yrotation
                JOINT LeftShoulder
                {
                    OFFSET  10.383700   0.000000   0.000000
                    CHANNELS 3 Zrotation Xrotation Yrotation
                    JOINT LeftElbow
                    {
                        OFFSET  26.662100   0.001529   0.000325
                        CHANNELS 3 Zrotation Xrotation Yrotation
                        JOINT LeftWrist
                        {
                            OFFSET  28.869000  -0.000011  -0.000096
                            CHANNELS 3 Zrotation Xrotation Yrotation
                            JOINT LeftFinger0
                            {
                                OFFSET   2.044650  -2.323460   3.252850
                                CHANNELS 3 Zrotation Xrotation Yrotation
                                JOINT LeftFinger01
                                {
                                    OFFSET   3.088130   0.000000   0.000000
                                    CHANNELS 3 Zrotation Xrotation Yrotation
                                    JOINT LeftFinger02
                                    {
                                        OFFSET   2.639460   0.000000   0.000000
                                        CHANNELS 3 Zrotation Xrotation Yrotation
                                        End Site
                                        {
                                            OFFSET   2.582190   0.000000   0.000000
                                        }
                                    }
                                }
                            }
                            JOINT LeftFinger1
                            {
                                OFFSET   8.364480   0.000000   3.252850
                                CHANNELS 3 Zrotation Xrotation Yrotation
                                JOINT LeftFinger11
                                {
                                    OFFSET   4.646930   0.000000   0.000000
                                    CHANNELS 3 Zrotation Xrotation Yrotation
                                    JOINT LeftFinger12
                                    {
                                        OFFSET   2.323460   0.000000   0.000000
                                        CHANNELS 3 Zrotation Xrotation Yrotation
                                        End Site
                                        {
                                            OFFSET   2.273050   0.000000   0.000000
                                        }
                                    }
                                }
                            }
                            JOINT LeftFinger2
                            {
                                OFFSET   8.364480   0.000016   1.078090
                                CHANNELS 3 Zrotation Xrotation Yrotation
                                JOINT LeftFinger21
                                {
                                    OFFSET   5.111620   0.000000   0.000000
                                    CHANNELS 3 Zrotation Xrotation Yrotation
                                    JOINT LeftFinger22
                                    {
                                        OFFSET   2.788160   0.000017   0.000000
                                        CHANNELS 3 Zrotation Xrotation Yrotation
                                        End Site
                                        {
                                            OFFSET   2.727660   0.000000   0.000000
                                        }
                                    }
                                }
                            }
                            JOINT LeftFinger3
                            {
                                OFFSET   7.899780   0.000015  -1.078090
                                CHANNELS 3 Zrotation Xrotation Yrotation
                                JOINT LeftFinger31
                                {
                                    OFFSET   4.646920   0.000000   0.000000
                                    CHANNELS 3 Zrotation Xrotation Yrotation
                                    JOINT LeftFinger32
                                    {
                                        OFFSET   2.323470   0.000000   0.000000
                                        CHANNELS 3 Zrotation Xrotation Yrotation
                                        End Site
                                        {
                                            OFFSET   2.273050   0.000000   0.000000
                                        }
                                    }
                                }
                            }
                            JOINT LeftFinger4
                            {
                                OFFSET   7.435090   0.000000  -3.252850
                                CHANNELS 3 Zrotation Xrotation Yrotation
                                JOINT LeftFinger41
                                {
                                    OFFSET   3.717550   0.000000   0.000000
                                    CHANNELS 3 Zrotation Xrotation Yrotation
                                    JOINT LeftFinger42
                                    {
                                        OFFSET   1.858760   0.000000   0.000000
                                        CHANNELS 3 Zrotation Xrotation Yrotation
                                        End Site
                                        {
                                            OFFSET   1.818440   0.000000   0.000000
                                        }
                                    }
                                }
                            }
                        }
                    }
                }
            }
            JOINT RightCollar
            {
                OFFSET  -3.911900  19.017000  -0.467062
                CHANNELS 3 Zrotation Xrotation Yrotation
                JOINT RightShoulder
                {
                    OFFSET -10.383700   0.000015   0.000000
                    CHANNELS 3 Zrotation Xrotation Yrotation
                    JOINT RightElbow
                    {
                        OFFSET -26.662100   0.001341   0.000385
                        CHANNELS 3 Zrotation Xrotation Yrotation
                        JOINT RightWrist
                        {
                            OFFSET -28.869000   0.000025  -0.000080
                            CHANNELS 3 Zrotation Xrotation Yrotation
                            JOINT RightFinger0
                            {
                                OFFSET  -2.044650  -2.323490   3.252850
                                CHANNELS 3 Zrotation Xrotation Yrotation
                                JOINT RightFinger01
                                {
                                    OFFSET  -3.088130   0.000000   0.000000
                                    CHANNELS 3 Zrotation Xrotation Yrotation
                                    JOINT RightFinger02
                                    {
                                        OFFSET  -2.639460   0.000000   0.000000
                                        CHANNELS 3 Zrotation Xrotation Yrotation
                                        End Site
                                        {
                                            OFFSET  -2.582190   0.000000   0.000000
                                        }
                                    }
                                }
                            }
                            JOINT RightFinger1
                            {
                                OFFSET  -8.364480   0.000000   3.252850
                                CHANNELS 3 Zrotation Xrotation Yrotation
                                JOINT RightFinger11
                                {
                                    OFFSET  -4.646930   0.000000   0.000000
                                    CHANNELS 3 Zrotation Xrotation Yrotation
                                    JOINT RightFinger12
                                    {
                                        OFFSET  -2.323470   0.000000   0.000000
                                        CHANNELS 3 Zrotation Xrotation Yrotation
                                        End Site
                                        {
                                            OFFSET  -2.273050   0.000000   0.000000
                                        }
                                    }
                                }
                            }
                            JOINT RightFinger2
                            {
                                OFFSET  -8.364480   0.000000   1.078090
                                CHANNELS 3 Zrotation Xrotation Yrotation
                                JOINT RightFinger21
                                {
                                    OFFSET  -5.111610   0.000000   0.000000
                                    CHANNELS 3 Zrotation Xrotation Yrotation
                                    JOINT RightFinger22
                                    {
                                        OFFSET  -2.788160   0.000000   0.000000
                                        CHANNELS 3 Zrotation Xrotation Yrotation
                                        End Site
                                        {
                                            OFFSET  -2.727660   0.000000   0.000000
                                        }
                                    }
                                }
                            }
                            JOINT RightFinger3
                            {
                                OFFSET  -7.899780   0.000000  -1.078090
                                CHANNELS 3 Zrotation Xrotation Yrotation
                                JOINT RightFinger31
                                {
                                    OFFSET  -4.646920   0.000000   0.000000
                                    CHANNELS 3 Zrotation Xrotation Yrotation
                                    JOINT RightFinger32
                                    {
                                        OFFSET  -2.323470   0.000000   0.000000
                                        CHANNELS 3 Zrotation Xrotation Yrotation
                                        End Site
                                        {
                                            OFFSET  -2.273050   0.000000   0.000000
                                        }
                                    }
                                }
                            }
                            JOINT RightFinger4
                            {
                                OFFSET  -7.435090   0.000000  -3.252850
                                CHANNELS 3 Zrotation Xrotation Yrotation
                                JOINT RightFinger41
                                {
                                    OFFSET  -3.717550   0.000000   0.000000
                                    CHANNELS 3 Zrotation Xrotation Yrotation
                                    JOINT RightFinger42
                                    {
                                        OFFSET  -1.858770   0.000000   0.000000
                                        CHANNELS 3 Zrotation Xrotation Yrotation
                                        End Site
                                        {
                                            OFFSET  -1.818440   0.000000   0.000000
                                        }
                                    }
                                }
                            }
                        }
                    }
                }
            }
        }
    }
    JOINT LeftHip
    {
        OFFSET   9.783010   0.000000   0.000000
        CHANNELS 3 Zrotation Xrotation Yrotation
        JOINT LeftKnee
        {
            OFFSET   0.000070 -41.789100   0.000028
            CHANNELS 3 Zrotation Xrotation Yrotation
            JOINT LeftAnkle
            {
                OFFSET   0.000087 -41.133200  -0.000100
                CHANNELS 3 Zrotation Xrotation Yrotation
                JOINT LeftToe
                {
                    OFFSET   0.000000  -6.358960  14.674500
                    CHANNELS 3 Zrotation Xrotation Yrotation
                    End Site
                    {
                        OFFSET   0.000000   0.000000   3.913200
                    }
                }
            }
        }
    }
    JOINT RightHip
    {
        OFFSET  -9.783020   0.000000   0.000000
        CHANNELS 3 Zrotation Xrotation Yrotation
        JOINT RightKnee
        {
            OFFSET   0.000044 -41.789100  -0.000870
            CHANNELS 3 Zrotation Xrotation Yrotation
            JOINT RightAnkle
            {
                OFFSET  -0.000090 -41.133200  -0.000245
                CHANNELS 3 Zrotation Xrotation Yrotation
                JOINT RightToe
                {
                    OFFSET   0.000000  -6.358960  14.674500
                    CHANNELS 3 Zrotation Xrotation Yrotation
                    End Site
                    {
                        OFFSET   0.000000   0.000000   3.913200
                    }
                }
            }
        }
    }
}
MOTION
Frames: 4
Frame Time:   0.016667
  0.748783  87.884500  -0.119794  -6.291680 -18.600900 -11.356400   4.894470  18.002600  -1.919670  11.363300  35.735200  -6.025020   4.521210   1.709340  -0.134776   7.445390   3.402370   4.580810   0.269288  -9.704720   9.542960 -28.482500 -21.054400 -82.147800   5.922570   3.852110 -14.267900  65.648900  -1.027190 -35.103800  42.666500  29.600700 -49.863200 -24.345500  -0.000619   0.009733  -7.172750   0.002076  -0.000211 -11.877200   0.247906  -1.267240  -9.718150   0.019178   0.007453  -6.802710   0.012833   0.006761 -11.427300   0.243082  -1.274760 -11.861100   0.036511   0.014722  -7.896260   0.023645   0.013150  -6.072930  -0.186231   1.271040  -6.071330   0.026030   0.004551  -4.043500   0.017354   0.006334  -8.243900  -0.741807   4.823240 -12.398200   0.050849   0.016238  -8.257240   0.032446   0.015677  -7.833550  -6.926390   4.211080  37.443300  -6.640650 108.437000  -8.057160   8.938960  14.651700 -78.184600   6.243060  40.361600 -54.438200  44.940200  89.881600  13.772800  -0.007295  -0.004106   1.886380  -0.003529  -0.004005   8.617340  -0.214872  -1.408630   7.052810  -0.008040   0.000347   4.936960  -0.006958   0.001032   8.461840  -0.370890  -2.490910   8.470210  -0.004521  -0.000704   5.641160  -0.002996   0.000310   8.249020  -0.487386  -3.320400   8.262830   0.000301  -0.002587   5.503040   0.000719  -0.001512  10.723000  -1.011160  -5.318400  16.154700  -0.001744   0.000615  10.758900   0.000011   0.000494   6.694800   7.923020   5.537860  -1.611640  29.400700  11.251700  -3.958970 -16.286200   3.345280   0.000000   0.000000   0.000000   1.663430  16.741100  -8.485940  -3.049920   6.895440  -1.064590   1.184650  -3.806690   2.995050   0.000000   0.000000   0.000000
  0.704995  87.919600  -0.001996  -6.096220 -18.699400 -10.981900   4.815380  17.867700  -1.990160  11.195200  35.464400  -6.122590   4.411330   1.649070  -0.126660   7.263650   3.285460   4.499160   0.240874  -9.411070   9.712060 -28.516300 -20.792400 -82.273600   6.136290   4.263620 -14.513100  65.171900  -0.763217 -34.140000  41.963500  29.187200 -49.228500 -25.174200  -0.000314   0.007645  -7.587080   0.001760  -0.000219 -13.704200   0.096310  -0.584930 -11.209800   0.014284   0.003067  -7.846880   0.010023   0.003156 -14.322400   0.083460  -0.584752 -14.673800   0.027211   0.004252  -9.772780   0.019900   0.004816  -7.760110  -0.364689   2.142470  -7.759880   0.019051  -0.000204  -5.168070   0.013313   0.000153 -10.007100  -1.177000   6.086400 -15.080600   0.041984   0.008262 -10.043700   0.028308   0.008949  -7.750580  -6.943160   4.481210  37.461700  -6.383300 107.336000  -8.401490   9.109230  15.132700 -77.775500   6.267040  40.278200 -54.169600  44.824200  89.653000  14.047700  -0.007745  -0.004980   2.023820  -0.003910  -0.003942   8.616270  -0.198774  -1.294160   7.051440  -0.008331   0.000381   4.935990  -0.007022   0.001075   8.435470  -0.363939  -2.457140   8.443900  -0.004644  -0.000964   5.623640  -0.002950   0.000104   8.421930  -0.486678  -3.301940   8.437000   0.000542  -0.002992   5.619050   0.000913  -0.001791  10.739900  -1.010680  -5.315750  16.181200  -0.002155   0.000617  10.776700  -0.000279   0.000416   6.483820   8.175080   5.393700  -1.414280  29.099400  11.069700  -4.026150 -16.236100   3.290490  -0.000000   0.000000  -0.000000   1.592940  16.921700  -8.497510  -2.994350   6.867400  -1.301800   1.249390  -3.937000   2.855920  -0.000000   0.000000   0.000000
  0.655453  87.950100   0.123627  -5.895280 -18.771300 -10.578100   4.732060  17.703800  -2.062580  11.014000  35.136100  -6.217890   4.299900   1.601040  -0.120211   7.080000   3.193850   4.421910   0.242099  -9.063810   9.914310 -28.654700 -20.387500 -82.364400   6.469000   4.684130 -14.936400  64.478800  -0.632257 -33.218400  41.720400  28.832900 -48.956500 -25.299600   0.001565   0.008147  -7.649800   0.001557   0.000578 -15.063200   0.108019  -0.521800 -12.323800   0.018245   0.006535  -8.626650   0.013551   0.006122 -18.703400   0.105549  -0.500866 -15.971500   0.059993   0.025125 -10.711100   0.036578   0.025815  -9.274670  -0.362305   2.345650  -9.416200   0.037366   0.005961  -6.271030   0.026643   0.005449 -11.815400  -1.396850   6.636290 -17.832300   0.052113   0.017385 -11.876300   0.038001   0.016922  -7.677740  -6.820310   4.701070  37.715300  -6.040850 106.038000  -8.833770   9.517750  15.953000 -77.270800   6.241700  40.063400 -53.508500  44.539200  89.099700  14.619600  -0.008035  -0.005663   2.309760  -0.004096  -0.003875   8.942920  -0.221626  -1.309390   7.318460  -0.008729   0.000420   5.122910  -0.007009   0.001113   8.862040  -0.444462  -2.771330   8.867890  -0.004755  -0.001116   5.906000  -0.002925  -0.000012   9.099360  -0.583366  -3.632880   9.116740   0.000808  -0.003217   6.071750   0.001023  -0.001951  11.205900  -1.114660  -5.575530  16.891000  -0.002548   0.000413  11.249500  -0.000605   0.000332   6.248360   8.418630   5.242400  -1.170430  28.750700  10.851300  -4.080280 -16.182600   3.263810  -0.000000   0.000000  -0.000000   1.516040  17.129500  -8.476600  -2.885900   6.788080  -1.665280   1.279570  -4.059940   2.783780   0.000000   0.000000   0.000000
  0.605930  87.981500   0.252930  -5.695410 -18.812500 -10.166300   4.653520  17.510300  -2.144330  10.842000  34.747800  -6.330270   4.168500   1.578160  -0.114726   6.863090   3.150710   4.376970   0.262872  -8.675080  10.190900 -28.852500 -19.810700 -82.340100   6.903940   4.918260 -15.569100  63.620900  -0.467035 -32.247000  41.631800  28.656900 -48.816800 -25.317500   0.003155   0.011662  -7.658760   0.000860   0.006157 -15.785100   0.189977  -0.512784 -12.916700   0.045969   0.030815  -9.041640   0.029051   0.026890 -21.628800   0.260160  -0.488886 -17.541100   0.113636   0.135302 -11.734200   0.053257   0.109084 -10.450000  -0.345969   2.374680 -10.459100   0.095854   0.049116  -6.965710   0.059055   0.042519 -12.911200  -1.485900   6.823510 -19.497300   0.110033   0.081247 -12.985100   0.058618   0.072732  -7.534500  -6.628480   5.040800  37.865700  -5.750560 104.467000  -9.297460   9.982360  16.889200 -76.557800   6.220270  39.672000 -52.796100  44.229600  88.542700  15.368300  -0.009021  -0.008114   2.684120  -0.004653  -0.003838   9.880070  -0.244478  -1.324610   8.084920  -0.008975   0.000443   5.659440  -0.006918   0.001134  10.069200  -0.561147  -3.085560  10.084000  -0.004810  -0.001616   6.715910  -0.002843  -0.000386  10.472400  -0.772152  -4.148670  10.501100   0.001853  -0.003939   6.993740   0.001376  -0.002474  12.361200  -1.311020  -5.941550  18.644300  -0.002755  -0.001018  12.417100  -0.000793  -0.000000   6.007120   8.655490   5.105530  -0.903870  28.356000  10.610900  -4.111860 -16.115900   3.248090  -0.000000   0.000000  -0.000000   1.433890  17.333600  -8.440390  -2.753620   6.680210  -2.058930   1.296050  -4.168650   2.733430  -0.000000   0.000000  -0.000000
